<?xml version="1.0" encoding="UTF-8" standalone="no"?>
<!-- Created with Inkscape (http://www.inkscape.org/) -->

<svg
   width="99.486298mm"
   height="153.54683mm"
   viewBox="0 0 99.486298 153.54683"
   version="1.1"
   id="svg1"
   xml:space="preserve"
   xmlns="http://www.w3.org/2000/svg"
   xmlns:svg="http://www.w3.org/2000/svg"><defs
     id="defs1" /><g
     id="layer2"
     transform="translate(-50.914859,-77.612317)"><path
       style="fill:#323232;fill-opacity:1;stroke:none;stroke-width:0.264583;stroke-opacity:1"
       d="m 135.14368,110.54564 10.53929,0.0565 c 0,0 0.21092,0.62689 -0.1121,2.52855 -0.20568,1.21089 -1.09993,3.63301 -2.21642,6.11682 -0.7069,1.57261 -1.60305,3.25068 -2.86936,5.25154 -1.17881,1.86261 -2.65404,4.00495 -5.23127,6.60235 -3.7979,4.69099 -7.61087,7.9939 -10.55449,10.90137 -8.93768,8.82792 -12.13899,11.76308 -12.13899,11.76308 0,0 -7.21753,7.39422 -12.17175,15.21838 -14.104864,22.27566 -7.120479,37.37559 -6.125054,43.18224 0,0 2.428035,10.36174 9.933204,18.99268 0,0 -22.664771,-3.71656 -33.602502,-10.67694 -6.275044,-3.99321 -19.536765,-9.97439 -19.679379,-33.93365 0,0 1.014876,-12.22697 8.134978,-21.41758 5.017962,-6.47717 9.511808,-10.28813 15.894126,-15.24305 6.345096,-4.92602 24.269163,-13.99508 27.209087,-15.8108 1.67212,-1.03271 6.43501,-3.43182 10.64043,-5.80309 3.59988,-2.02983 8.78575,-4.86913 9.90154,-5.673 2.45098,-1.76582 7.37482,-5.34292 9.83223,-8.17658 1.74984,-2.01775 2.61643,-3.87882 2.61643,-3.87882 z"
       id="path1" /><path
       id="path9"
       style="fill:#323232;fill-opacity:1;stroke:none;stroke-width:0.3;stroke-linecap:butt;stroke-linejoin:round;stroke-dasharray:none;stroke-opacity:1"
       d="m 140.56248,77.612317 -0.28525,1.167887 c -1.84183,7.293641 -8.27754,16.032097 -8.27754,16.032097 4.63146,5.924059 4.85035,12.048879 4.85035,12.048879 1.61032,0.042 2.32974,0.006 4.29793,0.0238 0,0 2.6e-4,-0.0247 5.2e-4,-0.0718 1e-4,0.0473 0,0.0724 0,0.0724 1.96819,-0.0181 2.792,0.0176 4.40232,-0.0243 0,0 0.21889,-6.12482 4.85035,-12.048879 0,0 -6.43571,-8.738456 -8.27754,-16.032097 l -0.28577,-1.167887 0.14108,14.92157 a 2.7268963,2.7268963 0 0 1 1.90944,2.601908 2.7268963,2.7268963 0 0 1 -2.72696,2.726449 2.7268963,2.7268963 0 0 1 -2.72697,-2.726449 2.7268963,2.7268963 0 0 1 1.98748,-2.625163 z" /></g></svg>
